<?xml version="1.0" encoding="utf-8"?>
<svg id="wave" style="transform:rotate(0deg); transition: 0.3s" viewBox="0 0 1440 300" version="1.1" xmlns="http://www.w3.org/2000/svg" xmlns:bx="https://boxy-svg.com">
  <defs>
    <linearGradient id="sw-gradient-0" x1="0" x2="0" y1="1" y2="0">
      <stop stop-color="rgba(107, 213, 44, 1)" offset="0"/>
      <stop stop-color="rgba(107, 213, 44, 1)" offset="1"/>
    </linearGradient>
    <bx:guide x="1441.0930872017134" y="165.14410770893244" angle="-90"/>
  </defs>
  <path style="transform:translate(0, 0px); opacity:1" fill="url(#sw-gradient-0)" d="M 0 165 L 26.7 150 C 72.192 120.938 119.554 60.623 160 60 C 213.294 59.179 267 120 320 155 C 373.3 190 427 200 480 215 C 533.3 230 587 250 640 225 C 693.3 200 747 130 800 130 C 853.3 130 907 200 960 190 C 1013.3 180 1067 90 1120 85 C 1173.3 80 1227.415 158.934 1280 180 C 1333.487 201.428 1389.415 178.414 1440 165 C 1491.746 151.279 1547 220 1600 200 C 1653.3 180 1707 90 1760 80 C 1813.3 70 1867 140 1920 180 C 1973.3 220 2027 230 2080 220 C 2133.3 210 2187 180 2240 170 C 2293.3 160 2347 170 2400 190 C 2453.3 210 2507 240 2560 245 C 2613.3 250 2667 230 2720 210 C 2773.3 190 2827 170 2880 155 C 2933.3 140 2987 130 3040 145 C 3093.3 160 3147 200 3200 195 C 3253.3 190 3307 140 3360 120 C 3413.3 100 3467 110 3520 115 C 3573.3 120 3627 120 3680 135 C 3733.3 150 3787 180 3813 195 L 3840 210 L 3840 300 L 3813.3 300 C 3786.7 300 3733 300 3680 300 C 3626.7 300 3573 300 3520 300 C 3466.7 300 3413 300 3360 300 C 3306.7 300 3253 300 3200 300 C 3146.7 300 3093 300 3040 300 C 2986.7 300 2933 300 2880 300 C 2826.7 300 2773 300 2720 300 C 2666.7 300 2613 300 2560 300 C 2506.7 300 2453 300 2400 300 C 2346.7 300 2293 300 2240 300 C 2186.7 300 2133 300 2080 300 C 2026.7 300 1973 300 1920 300 C 1866.7 300 1813 300 1760 300 C 1706.7 300 1653 300 1600 300 C 1546.7 300 1493 300 1440 300 C 1386.7 300 1333 300 1280 300 C 1226.7 300 1173 300 1120 300 C 1066.7 300 1013 300 960 300 C 906.7 300 853 300 800 300 C 746.7 300 693 300 640 300 C 586.7 300 533 300 480 300 C 426.7 300 373 300 320 300 C 266.7 300 213 300 160 300 C 106.7 300 53 300 27 300 L 0 300 L 0 165 Z"/>
</svg>